<svg width="79" height="79" viewBox="0 0 79 79" fill="none" xmlns="http://www.w3.org/2000/svg">
<path d="M39.4751 0C17.6772 0 0 18.1235 0 40.4806C0 58.3622 11.311 73.5324 27.0043 78.8898C28.9783 79.2628 29.6988 78.0129 29.6988 76.9393C29.6988 75.9767 29.6643 73.4316 29.6445 70.0548C18.6642 72.4992 16.3447 64.6268 16.3447 64.6268C14.5533 59.9498 11.9624 58.7049 11.9624 58.7049C8.3747 56.1951 12.2289 56.2455 12.2289 56.2455C16.1917 56.5327 18.2743 60.4185 18.2743 60.4185C21.7979 66.6025 27.5176 64.8184 29.7679 63.7801C30.1232 61.1644 31.1448 59.3803 32.2749 58.3673C23.5103 57.3442 14.2918 53.8717 14.2918 38.3638C14.2918 33.9438 15.8315 30.3302 18.3582 27.4978C17.9486 26.4747 16.5964 22.3571 18.7431 16.788C18.7431 16.788 22.0595 15.6993 29.6001 20.9358C32.7487 20.0387 36.1242 19.5902 39.4849 19.575C42.8358 19.5952 46.2163 20.0387 49.3697 20.9409C56.9055 15.7044 60.2169 16.793 60.2169 16.793C62.3685 22.3671 61.0163 26.4797 60.6117 27.5028C63.1433 30.3353 64.6682 33.9489 64.6682 38.3689C64.6682 53.917 55.4398 57.3391 46.6456 58.3421C48.062 59.592 49.3253 62.0615 49.3253 65.8364C49.3253 71.2493 49.276 75.6139 49.276 76.9393C49.276 78.0229 49.9866 79.2829 51.9902 78.8848C67.6588 73.5223 78.96 58.3572 78.96 40.4806C78.96 18.1235 61.2828 0 39.4751 0Z" fill="#6B7280"/>
</svg>
