<svg width="79" height="79" viewBox="0 0 79 79" fill="none" xmlns="http://www.w3.org/2000/svg">
<g clip-path="url(#clip0)">
<path d="M39.48 0C17.6791 0 0 17.6791 0 39.48C0 61.2809 17.6791 78.96 39.48 78.96C61.2809 78.96 78.96 61.2809 78.96 39.48C78.96 17.6791 61.2809 0 39.48 0ZM28.0076 59.6827H18.3924V30.7552H28.0076V59.6827ZM23.2003 26.8051H23.1376C19.9111 26.8051 17.8243 24.584 17.8243 21.8081C17.8243 18.9695 19.9749 16.8098 23.2641 16.8098C26.5533 16.8098 28.5775 18.9695 28.6401 21.8081C28.6401 24.584 26.5533 26.8051 23.2003 26.8051ZM62.6779 59.6827H53.0639V44.2072C53.0639 40.318 51.6717 37.6655 48.1928 37.6655C45.5367 37.6655 43.9548 39.4547 43.2596 41.1818C43.0053 41.7999 42.9433 42.6638 42.9433 43.5282V59.6827H33.3287C33.3287 59.6827 33.4546 33.4691 33.3287 30.7552H42.9433V34.851C44.221 32.8799 46.5072 30.0763 51.6085 30.0763C57.9344 30.0763 62.6779 34.2107 62.6779 43.0957V59.6827Z" fill="#6B7280"/>
</g>
<defs>
<clipPath id="clip0">
<rect width="78.96" height="78.96" fill="white"/>
</clipPath>
</defs>
</svg>
