<svg width="188" height="5" viewBox="0 0 188 5" fill="none" xmlns="http://www.w3.org/2000/svg">
<path d="M1 3.18471C12.1081 3.18471 22.5231 1 33.7842 1C41.6958 1 47.8514 1.72336 55.1941 2.34614C65.1311 3.18891 73.8675 4.09106 84.4844 3.62607C93.4812 3.23203 103.599 3.01248 112.399 3.59297C116.012 3.83127 119.055 3.92663 122.398 3.29505C124.543 2.88991 128.822 3.07684 129.423 3.87985C129.901 4.51858 140.572 2.41818 142.768 2.09236C146.062 1.60342 147.492 1.98753 150.536 2.48958C156.278 3.43649 161.419 3.62537 167.932 3.19575C169.09 3.11937 170.429 3.20318 171.611 3.18471C173.341 3.1577 174.931 2.78749 176.63 2.78749C180.184 2.78749 183.299 2.39027 187 2.39027" stroke="#FFD644" stroke-width="2" stroke-linecap="round" stroke-linejoin="round"/>
</svg>
