<svg width="79" height="65" viewBox="0 0 79 65" fill="none" xmlns="http://www.w3.org/2000/svg">
<path d="M78.96 7.59497C76.0237 8.883 72.8949 9.73675 69.6328 10.1513C72.9886 8.14768 75.5499 4.99915 76.7541 1.20414C73.6253 3.06957 70.1708 4.38722 66.4893 5.12253C63.5184 1.9592 59.2842 0 54.665 0C45.703 0 38.4881 7.27419 38.4881 16.1917C38.4881 17.4748 38.5966 18.7086 38.8631 19.8831C25.4054 19.2268 13.4972 12.7767 5.49759 2.95113C4.10098 5.37422 3.28178 8.14769 3.28178 11.1334C3.28178 16.7395 6.16875 21.7091 10.4721 24.5862C7.87132 24.5368 5.31993 23.7818 3.1584 22.5924C3.1584 22.6418 3.1584 22.7059 3.1584 22.7701C3.1584 30.6365 8.76949 37.1704 16.1276 38.6756C14.8099 39.0358 13.3738 39.2086 11.8835 39.2086C10.8471 39.2086 9.80091 39.1494 8.81884 38.9322C10.9162 45.3428 16.8678 50.0557 23.9446 50.2087C18.4372 54.5169 11.4443 57.1128 3.87398 57.1128C2.54646 57.1128 1.27323 57.0535 0 56.8907C7.17055 61.5148 15.6686 64.155 24.8329 64.155C54.6206 64.155 70.9061 39.48 70.9061 18.0917C70.9061 17.3761 70.8814 16.6852 70.8469 15.9993C74.0595 13.7193 76.759 10.8718 78.96 7.59497Z" fill="#6B7280"/>
</svg>
