
<svg xmlns="http://www.w3.org/2000/svg" xmlns:xlink="http://www.w3.org/1999/xlink" viewBox="0 0 700 348" width="680" height="348"><path d="M 203.120,123.547 C 203.000,128.712 202.550,128.629 201.980,133.712" stroke-width="5.089" stroke="white" fill="none" stroke-linecap="round"></path><path d="M 201.980,133.712 C 199.831,142.474 200.180,142.530 197.480,151.182" stroke-width="3.170" stroke="white" fill="none" stroke-linecap="round"></path><path d="M 197.480,151.182 C 194.812,161.030 194.821,161.030 191.960,170.824" stroke-width="2.575" stroke="white" fill="none" stroke-linecap="round"></path><path d="M 191.960,170.824 C 189.466,179.143 189.532,179.162 186.920,187.447" stroke-width="2.659" stroke="white" fill="none" stroke-linecap="round"></path><path d="M 186.920,187.447 C 185.128,193.016 185.206,193.040 183.440,198.618" stroke-width="3.046" stroke="white" fill="none" stroke-linecap="round"></path><path d="M 183.440,198.618 C 179.798,208.723 180.358,208.846 177.380,219.106" stroke-width="2.570" stroke="white" fill="none" stroke-linecap="round"></path><path d="M 177.380,219.106 C 174.616,228.118 175.328,227.914 174.500,237.000" stroke-width="2.617" stroke="white" fill="none" stroke-linecap="round"></path><path d="M 174.500,237.000 C 173.779,246.154 174.436,241.856 177.020,246.582" stroke-width="3.617" stroke="white" fill="none" stroke-linecap="round"></path><path d="M 177.020,246.582 C 184.702,243.440 182.389,247.292 191.720,239.276" stroke-width="3.714" stroke="white" fill="none" stroke-linecap="round"></path><path d="M 191.720,239.276 C 194.712,236.778 195.052,237.299 197.720,234.300" stroke-width="3.761" stroke="white" fill="none" stroke-linecap="round"></path><path d="M 197.720,234.300 C 203.665,229.178 203.772,229.314 209.840,224.347" stroke-width="3.135" stroke="white" fill="none" stroke-linecap="round"></path><path d="M 209.840,224.347 C 218.158,217.705 218.215,217.795 226.820,211.535" stroke-width="2.593" stroke="white" fill="none" stroke-linecap="round"></path><path d="M 226.820,211.535 C 249.627,194.996 249.748,195.205 273.020,179.347" stroke-width="1.475" stroke="white" fill="none" stroke-linecap="round"></path><path d="M 273.020,179.347 C 286.554,170.734 286.347,170.432 300.260,162.406" stroke-width="1.777" stroke="white" fill="none" stroke-linecap="round"></path><path d="M 300.260,162.406 C 309.333,156.977 309.294,156.916 318.500,151.712" stroke-width="2.185" stroke="white" fill="none" stroke-linecap="round"></path><path d="M 318.500,151.712 C 335.374,142.021 335.373,142.021 352.340,132.494" stroke-width="1.772" stroke="white" fill="none" stroke-linecap="round"></path><path d="M 352.340,132.494 C 359.708,128.135 359.794,128.309 367.340,124.288" stroke-width="2.387" stroke="white" fill="none" stroke-linecap="round"></path><path d="M 367.340,124.288 C 386.246,114.765 386.228,114.768 405.380,105.759" stroke-width="1.726" stroke="white" fill="none" stroke-linecap="round"></path><path d="M 405.380,105.759 C 409.676,103.975 409.586,103.779 414.020,102.318" stroke-width="2.730" stroke="white" fill="none" stroke-linecap="round"></path><path d="M 414.020,102.318 C 420.326,99.982 416.546,101.354 419.120,100.518" stroke-width="3.618" stroke="white" fill="none" stroke-linecap="round"></path><path d="M 419.120,100.518 C 411.895,103.596 415.616,102.073 404.600,106.500" stroke-width="3.751" stroke="white" fill="none" stroke-linecap="round"></path><path d="M 404.600,106.500 C 395.353,110.242 395.335,110.188 386.000,113.700" stroke-width="2.781" stroke="white" fill="none" stroke-linecap="round"></path><path d="M 386.000,113.700 C 369.786,119.681 369.793,119.692 353.480,125.400" stroke-width="2.061" stroke="white" fill="none" stroke-linecap="round"></path><path d="M 353.480,125.400 C 341.011,129.469 341.106,129.740 328.640,133.818" stroke-width="2.164" stroke="white" fill="none" stroke-linecap="round"></path><path d="M 328.640,133.818 C 300.491,143.479 300.571,143.684 272.600,153.829" stroke-width="1.378" stroke="white" fill="none" stroke-linecap="round"></path><path d="M 272.600,153.829 C 253.769,160.661 253.841,160.791 235.340,168.441" stroke-width="1.530" stroke="white" fill="none" stroke-linecap="round"></path><path d="M 235.340,168.441 C 219.760,175.327 219.659,175.061 204.380,182.629" stroke-width="1.708" stroke="white" fill="none" stroke-linecap="round"></path><path d="M 204.380,182.629 C 195.360,186.979 195.340,186.921 186.500,191.629" stroke-width="2.194" stroke="white" fill="none" stroke-linecap="round"></path><path d="M 186.500,191.629 C 179.729,194.623 180.030,195.026 173.720,198.724" stroke-width="2.716" stroke="white" fill="none" stroke-linecap="round"></path><path d="M 173.720,198.724 C 163.302,203.702 168.209,202.485 163.460,207.353" stroke-width="2.948" stroke="white" fill="none" stroke-linecap="round"></path><path d="M 163.460,207.353 C 168.550,211.000 163.602,210.637 174.320,212.594" stroke-width="3.699" stroke="white" fill="none" stroke-linecap="round"></path><path d="M 174.320,212.594 C 187.715,215.475 187.420,216.214 201.200,217.782" stroke-width="2.533" stroke="white" fill="none" stroke-linecap="round"></path><path d="M 201.200,217.782 C 207.545,218.724 207.515,218.863 213.920,219.371" stroke-width="2.919" stroke="white" fill="none" stroke-linecap="round"></path><path d="M 213.920,219.371 C 220.868,220.149 220.865,220.074 227.840,220.482" stroke-width="2.978" stroke="white" fill="none" stroke-linecap="round"></path><path d="M 227.840,220.482 C 239.721,221.102 239.708,221.049 251.600,221.171" stroke-width="2.505" stroke="white" fill="none" stroke-linecap="round"></path><path d="M 251.600,221.171 C 257.988,221.274 257.961,221.208 264.320,220.694" stroke-width="2.964" stroke="white" fill="none" stroke-linecap="round"></path><path d="M 264.320,220.694 C 274.222,219.778 274.188,219.791 284.000,218.206" stroke-width="2.632" stroke="white" fill="none" stroke-linecap="round"></path><path d="M 284.000,218.206 C 289.816,215.324 287.722,217.607 291.320,216.353" stroke-width="3.405" stroke="white" fill="none" stroke-linecap="round"></path><path d="M 291.320,216.353 C 290.522,219.188 292.486,217.150 289.340,221.859" stroke-width="4.397" stroke="white" fill="none" stroke-linecap="round"></path><path d="M 289.340,221.859 C 285.377,226.218 287.522,225.965 285.320,229.906" stroke-width="4.413" stroke="white" fill="none" stroke-linecap="round"></path><path d="M 285.320,229.906 C 287.202,233.949 285.286,232.094 289.160,233.612" stroke-width="4.705" stroke="white" fill="none" stroke-linecap="round"></path><path d="M 289.160,233.612 C 292.264,231.019 292.122,233.102 295.160,228.212" stroke-width="4.044" stroke="white" fill="none" stroke-linecap="round"></path><path d="M 295.160,228.212 C 297.892,225.242 298.054,225.407 300.740,222.388" stroke-width="3.881" stroke="white" fill="none" stroke-linecap="round"></path><path d="M 300.740,222.388 C 304.574,217.399 304.972,218.148 309.320,214.023" stroke-width="3.390" stroke="white" fill="none" stroke-linecap="round"></path><path d="M 309.320,214.023 C 313.010,211.520 311.384,212.555 314.360,212.700" stroke-width="3.945" stroke="white" fill="none" stroke-linecap="round"></path><path d="M 314.360,212.700 C 314.983,216.116 316.160,214.273 315.620,219.529" stroke-width="4.427" stroke="white" fill="none" stroke-linecap="round"></path><path d="M 315.620,219.529 C 315.076,223.785 316.273,223.025 316.940,226.518" stroke-width="4.094" stroke="white" fill="none" stroke-linecap="round"></path><path d="M 316.940,226.518 C 320.155,230.619 319.156,229.768 323.780,231.494" stroke-width="3.795" stroke="white" fill="none" stroke-linecap="round"></path><path d="M 323.780,231.494 C 326.509,230.703 326.185,232.075 329.000,229.429" stroke-width="4.046" stroke="white" fill="none" stroke-linecap="round"></path><path d="M 329.000,229.429 C 332.275,227.528 332.359,227.712 335.480,225.512" stroke-width="3.937" stroke="white" fill="none" stroke-linecap="round"></path><path d="M 335.480,225.512 C 341.618,221.259 341.786,221.545 348.020,217.465" stroke-width="3.229" stroke="white" fill="none" stroke-linecap="round"></path><path d="M 348.020,217.465 C 351.724,214.716 351.848,215.197 355.940,213.388" stroke-width="3.489" stroke="white" fill="none" stroke-linecap="round"></path><path d="M 355.940,213.388 C 364.156,210.626 363.994,210.851 372.560,209.735" stroke-width="2.917" stroke="white" fill="none" stroke-linecap="round"></path><path d="M 372.560,209.735 C 380.241,209.833 380.146,208.932 387.920,210.000" stroke-width="3.258" stroke="white" fill="none" stroke-linecap="round"></path><path d="M 387.920,210.000 C 391.191,210.281 391.191,210.071 394.460,210.212" stroke-width="3.782" stroke="white" fill="none" stroke-linecap="round"></path><path d="M 394.460,210.212 C 401.257,210.317 401.211,210.069 407.960,209.576" stroke-width="3.237" stroke="white" fill="none" stroke-linecap="round"></path><path d="M 407.960,209.576 C 414.694,208.727 414.667,208.835 421.280,207.247" stroke-width="3.164" stroke="white" fill="none" stroke-linecap="round"></path><path d="M 421.280,207.247 C 426.014,206.392 425.884,206.212 430.340,204.547" stroke-width="3.466" stroke="white" fill="none" stroke-linecap="round"></path><path d="M 430.340,204.547 C 439.060,201.024 435.884,202.183 441.020,198.829" stroke-width="3.337" stroke="white" fill="none" stroke-linecap="round"></path><path d="M 441.020,198.829 C 438.463,198.110 441.850,197.901 435.920,198.300" stroke-width="3.934" stroke="white" fill="none" stroke-linecap="round"></path><path d="M 435.920,198.300 C 428.160,199.202 428.173,198.878 420.440,200.365" stroke-width="3.174" stroke="white" fill="none" stroke-linecap="round"></path><path d="M 420.440,200.365 C 414.288,201.409 414.270,201.294 408.140,202.482" stroke-width="3.101" stroke="white" fill="none" stroke-linecap="round"></path><path d="M 408.140,202.482 C 375.795,208.294 375.768,208.133 343.400,213.812" stroke-width="1.424" stroke="white" fill="none" stroke-linecap="round"></path><path d="M 343.400,213.812 C 324.935,216.710 324.975,216.950 306.500,219.794" stroke-width="1.643" stroke="white" fill="none" stroke-linecap="round"></path><path d="M 306.500,219.794 C 279.748,223.780 279.844,224.254 253.220,228.900" stroke-width="1.375" stroke="white" fill="none" stroke-linecap="round"></path><path d="M 253.220,228.900 C 233.855,232.426 233.938,232.621 214.880,237.476" stroke-width="1.587" stroke="white" fill="none" stroke-linecap="round"></path><path d="M 214.880,237.476 C 178.728,247.493 178.655,247.118 142.820,258.282" stroke-width="1.159" stroke="white" fill="none" stroke-linecap="round"></path><path d="M 142.820,258.282 C 133.048,261.400 133.008,261.231 123.440,264.953" stroke-width="1.875" stroke="white" fill="none" stroke-linecap="round"></path><path d="M 123.440,264.953 C 111.296,268.638 116.728,267.435 110.180,270.353" stroke-width="2.569" stroke="white" fill="none" stroke-linecap="round"></path><path d="M 110.180,270.353 C 114.995,271.160 109.436,271.496 119.720,270.671" stroke-width="3.215" stroke="white" fill="none" stroke-linecap="round"></path><path d="M 119.720,270.671 C 129.287,269.176 129.305,269.678 138.800,267.388" stroke-width="2.782" stroke="white" fill="none" stroke-linecap="round"></path><path d="M 138.800,267.388 C 152.826,264.828 152.807,264.756 166.760,261.829" stroke-width="2.268" stroke="white" fill="none" stroke-linecap="round"></path><path d="M 166.760,261.829 C 190.675,256.476 190.716,256.675 214.580,251.082" stroke-width="1.625" stroke="white" fill="none" stroke-linecap="round"></path><path d="M 214.580,251.082 C 257.507,241.219 257.545,241.388 300.500,231.653" stroke-width="1.125" stroke="white" fill="none" stroke-linecap="round"></path><path d="M 300.500,231.653 C 323.315,226.660 323.297,226.581 346.160,221.806" stroke-width="1.308" stroke="white" fill="none" stroke-linecap="round"></path><path d="M 346.160,221.806 C 368.896,216.875 368.915,216.971 391.700,212.276" stroke-width="1.397" stroke="white" fill="none" stroke-linecap="round"></path><path d="M 391.700,212.276 C 427.315,205.130 427.306,205.096 462.980,198.247" stroke-width="1.148" stroke="white" fill="none" stroke-linecap="round"></path><path d="M 462.980,198.247 C 475.711,195.623 475.735,195.786 488.540,193.588" stroke-width="1.736" stroke="white" fill="none" stroke-linecap="round"></path><path d="M 488.540,193.588 C 533.909,186.831 527.281,187.444 566.120,181.888" stroke-width="1.125" stroke="white" fill="none" stroke-linecap="round"></path><circle r="1.5" cx="496.4600830078125" cy="231.12353515625" fill="white"></circle></svg>